<svg width="361" height="361" viewBox="0 0 361 361" fill="none" xmlns="http://www.w3.org/2000/svg">
<path fill-rule="evenodd" clip-rule="evenodd" d="M360 112.61C360 108.31 360 104.01 359.98 99.71C359.96 96.09 359.92 92.47 359.82 88.85C359.61 80.96 359.14 73.01 357.74 65.21C356.32 57.29 353.99 49.92 350.33 42.72C346.73 35.65 342.03 29.19 336.42 23.58C330.81 17.97 324.34 13.27 317.27 9.67C310.08 6.01 302.71 3.69 294.8 2.26C287 0.86 279.04 0.39 271.15 0.18C267.53 0.08 263.91 0.04 260.29 0.02C255.99 0 251.69 0 247.39 0H112.61C108.31 0 104.01 0 99.71 0.02C96.09 0.04 92.47 0.08 88.85 0.18C80.96 0.4 73 0.86 65.2 2.27C57.28 3.69 49.92 6.02 42.73 9.68C35.66 13.28 29.19 17.98 23.58 23.59C17.97 29.2 13.27 35.66 9.67 42.73C6.01 49.93 3.68 57.3 2.26 65.22C0.86 73.02 0.39 80.98 0.18 88.86C0.08 92.48 0.04 96.1 0.02 99.72C0 104.01 0 108.31 0 112.61V247.38C0 251.68 0 255.98 0.02 260.28C0.04 263.9 0.08 267.52 0.18 271.14C0.39 279.03 0.86 286.98 2.26 294.78C3.68 302.7 6.01 310.07 9.67 317.27C13.27 324.34 17.97 330.8 23.58 336.41C29.19 342.02 35.66 346.72 42.73 350.32C49.92 353.98 57.29 356.3 65.2 357.73C73 359.13 80.96 359.6 88.85 359.81C92.47 359.91 96.09 359.95 99.71 359.97C104.01 360 108.31 359.99 112.61 359.99H247.38C251.68 359.99 255.98 359.99 260.28 359.97C263.9 359.95 267.52 359.91 271.14 359.81C279.03 359.6 286.99 359.13 294.79 357.73C302.71 356.31 310.07 353.98 317.26 350.32C324.33 346.72 330.8 342.02 336.41 336.41C342.02 330.8 346.72 324.34 350.32 317.27C353.98 310.07 356.31 302.7 357.73 294.78C359.13 286.98 359.6 279.02 359.81 271.14C359.91 267.52 359.95 263.9 359.97 260.28C360 255.98 359.99 251.68 359.99 247.38V112.61H360Z" fill="url(#paint0_linear_1_11)" style=""/>
<path d="M272.972 135.65C269.994 134.627 266.909 133.659 263.733 132.743C264.255 130.615 264.734 128.515 265.16 126.45C272.154 92.5485 267.581 65.2371 251.967 56.245C236.995 47.6229 212.509 56.6129 187.779 78.1048C185.401 80.1715 183.016 82.3596 180.633 84.6527C179.045 83.1355 177.459 81.6693 175.877 80.2669C149.96 57.2863 123.982 47.6019 108.383 56.62C93.4251 65.2672 88.9954 90.9425 95.2907 123.071C95.8986 126.175 96.6092 129.344 97.4128 132.566C93.7362 133.608 90.1868 134.719 86.7906 135.901C56.4054 146.48 37 163.061 37 180.259C37 198.021 57.8317 215.837 89.4803 226.639C91.9778 227.492 94.5694 228.298 97.2402 229.063C96.3732 232.548 95.6192 235.963 94.9863 239.294C88.9837 270.865 93.6713 295.934 108.589 304.526C123.998 313.4 149.859 304.279 175.04 282.297C177.031 280.559 179.028 278.717 181.029 276.785C183.623 279.279 186.212 281.64 188.788 283.854C213.179 304.815 237.27 313.279 252.174 304.662C267.568 295.763 272.571 268.833 266.076 236.069C265.58 233.567 265.002 231.01 264.354 228.408C266.17 227.872 267.953 227.319 269.691 226.743C302.593 215.857 324 198.258 324 180.259C324 162.998 303.969 146.306 272.972 135.65ZM265.835 215.121C264.266 215.64 262.656 216.142 261.015 216.628C257.383 205.145 252.481 192.934 246.482 180.318C252.206 168.003 256.919 155.948 260.45 144.54C263.385 145.388 266.235 146.283 268.981 147.227C295.539 156.358 311.739 169.857 311.739 180.259C311.739 191.338 294.244 205.721 265.835 215.121ZM254.048 238.447C256.92 252.935 257.33 266.034 255.428 276.274C253.718 285.475 250.281 291.609 246.031 294.066C236.986 299.294 217.644 292.499 196.784 274.573C194.393 272.518 191.984 270.324 189.568 268.001C197.655 259.169 205.737 248.901 213.625 237.497C227.499 236.268 240.607 234.258 252.494 231.514C253.08 233.872 253.6 236.185 254.048 238.447ZM134.845 293.163C126.008 296.279 118.97 296.369 114.716 293.919C105.663 288.705 101.899 268.577 107.033 241.577C107.621 238.485 108.321 235.309 109.127 232.062C120.884 234.658 133.896 236.527 147.804 237.652C155.745 248.811 164.061 259.068 172.441 268.049C170.61 269.814 168.786 271.494 166.973 273.078C155.837 282.798 144.679 289.694 134.845 293.163ZM93.4455 215.053C79.4511 210.277 67.894 204.069 59.9722 197.294C52.8539 191.207 49.26 185.163 49.26 180.259C49.26 169.822 64.8406 156.511 90.8264 147.463C93.9794 146.365 97.28 145.331 100.705 144.359C104.297 156.025 109.008 168.222 114.693 180.556C108.934 193.074 104.156 205.466 100.53 217.269C98.0877 216.568 95.7219 215.83 93.4455 215.053ZM107.323 120.72C101.929 93.1928 105.511 72.4273 114.525 67.2165C124.127 61.6655 145.359 69.5801 167.736 89.4227C169.167 90.691 170.603 92.0184 172.043 93.3918C163.704 102.333 155.464 112.513 147.594 123.606C134.096 124.855 121.175 126.862 109.296 129.55C108.549 126.55 107.887 123.602 107.323 120.72ZM231.122 151.247C228.282 146.349 225.366 141.566 222.394 136.914C231.551 138.07 240.325 139.605 248.564 141.482C246.09 149.399 243.007 157.676 239.378 166.162C236.775 161.226 234.021 156.249 231.122 151.247ZM180.637 102.142C186.292 108.26 191.955 115.091 197.526 122.503C191.913 122.238 186.23 122.1 180.5 122.1C174.824 122.1 169.184 122.235 163.605 122.495C169.181 115.153 174.893 108.331 180.637 102.142ZM129.829 151.332C126.992 156.244 124.289 161.194 121.727 166.153C118.157 157.697 115.102 149.382 112.607 141.353C120.796 139.523 129.528 138.027 138.627 136.893C135.613 141.587 132.673 146.406 129.829 151.332ZM138.889 224.498C129.488 223.451 120.625 222.031 112.438 220.252C114.973 212.08 118.095 203.587 121.741 194.949C124.31 199.904 127.023 204.856 129.877 209.779C132.785 214.794 135.797 219.707 138.889 224.498ZM180.976 259.238C175.165 252.977 169.369 246.051 163.708 238.601C169.203 238.817 174.806 238.927 180.5 238.927C186.35 238.927 192.133 238.795 197.825 238.542C192.236 246.126 186.593 253.063 180.976 259.238ZM239.495 194.509C243.331 203.24 246.565 211.688 249.133 219.721C240.811 221.617 231.827 223.144 222.361 224.279C225.34 219.564 228.281 214.699 231.171 209.695C234.094 204.632 236.87 199.561 239.495 194.509ZM220.551 203.578C216.064 211.346 211.458 218.762 206.783 225.762C198.266 226.37 189.468 226.683 180.5 226.683C171.569 226.683 162.881 226.406 154.515 225.864C149.651 218.772 144.945 211.334 140.487 203.645C136.041 195.976 131.95 188.243 128.242 180.552C131.949 172.844 136.03 165.102 140.451 157.447L140.45 157.449C144.882 149.774 149.547 142.372 154.366 135.325C162.902 134.68 171.654 134.344 180.499 134.344C189.385 134.344 198.149 134.683 206.682 135.333C211.428 142.329 216.061 149.706 220.51 157.383C225.01 165.145 229.144 172.836 232.883 180.378C229.155 188.051 225.031 195.819 220.551 203.578ZM245.843 66.8523C255.453 72.387 259.191 94.7085 253.152 123.979C252.767 125.847 252.334 127.749 251.863 129.677C239.955 126.933 227.026 124.892 213.489 123.623C205.602 112.408 197.43 102.213 189.227 93.3861C191.433 91.2675 193.635 89.2472 195.828 87.3408C217.017 68.9266 236.82 61.6563 245.843 66.8523Z" fill="white" style="fill:white;fill-opacity:1;"/>
<defs>
<linearGradient id="paint0_linear_1_11" x1="180" y1="358.605" x2="180" y2="7.75858" gradientUnits="userSpaceOnUse">
<stop stop-color="#FA233B" style="stop-color:#FA233B;stop-color:color(display-p3 0.9804 0.1373 0.2314);stop-opacity:1;"/>
<stop offset="1" stop-color="#FB5C74" style="stop-color:#FB5C74;stop-color:color(display-p3 0.9843 0.3608 0.4549);stop-opacity:1;"/>
</linearGradient>
</defs>
</svg>
